<svg width="60" height="70" viewBox="0 0 60 70" fill="none" xmlns="http://www.w3.org/2000/svg">
<g clip-path="url(#clip0_20_47)">
<path d="M41.92 12.5C45.3718 12.5 48.17 9.70178 48.17 6.25C48.17 2.79822 45.3718 0 41.92 0C38.4682 0 35.67 2.79822 35.67 6.25C35.67 9.70178 38.4682 12.5 41.92 12.5Z" fill="#7765B7"/>
<path d="M41.92 70C45.3718 70 48.17 67.2018 48.17 63.75C48.17 60.2982 45.3718 57.5 41.92 57.5C38.4682 57.5 35.67 60.2982 35.67 63.75C35.67 67.2018 38.4682 70 41.92 70Z" fill="#7765B7"/>
<path d="M41.92 70C32.255 70 24.42 62.165 24.42 52.5C24.42 35 46.92 28.3333 46.92 17.5C46.92 14.7383 44.6817 12.5 41.92 12.5V0C51.585 0 59.42 7.835 59.42 17.5C59.42 35 36.92 41.6667 36.92 52.5C36.92 55.2617 39.1583 57.5 41.92 57.5V70Z" fill="url(#paint0_linear_20_47)"/>
<path d="M41.92 70C51.585 70 59.42 62.165 59.42 52.5C59.42 35 36.92 28.3333 36.92 17.5C36.92 14.7383 39.1583 12.5 41.92 12.5V0C32.255 0 24.42 7.835 24.42 17.5C24.42 35 46.92 41.6667 46.92 52.5C46.92 55.2617 44.6817 57.5 41.92 57.5V70Z" fill="#7765B7"/>
<path d="M9.00335 25.8333C13.6057 25.8333 17.3367 22.1024 17.3367 17.5C17.3367 12.8976 13.6057 9.16666 9.00335 9.16666C4.40097 9.16666 0.670013 12.8976 0.670013 17.5C0.670013 22.1024 4.40097 25.8333 9.00335 25.8333Z" fill="#7765B7"/>
<path d="M15.2533 30H2.75334V60H15.2533V30Z" fill="#7765B7"/>
</g>
<defs>
<linearGradient id="paint0_linear_20_47" x1="41.92" y1="14.135" x2="41.92" y2="55.93" gradientUnits="userSpaceOnUse">
<stop stop-color="#7765B7"/>
<stop offset="0.5" stop-color="#463B6B"/>
<stop offset="1" stop-color="#7765B7"/>
</linearGradient>
<clipPath id="clip0_20_47">
<rect width="58.75" height="70" fill="white" transform="translate(0.670013)"/>
</clipPath>
</defs>
</svg>
