<svg width="360" height="420" viewBox="0 0 360 420" fill="none" xmlns="http://www.w3.org/2000/svg">
<path d="M251.5 75C272.211 75 289 58.2107 289 37.5C289 16.7893 272.211 0 251.5 0C230.789 0 214 16.7893 214 37.5C214 58.2107 230.789 75 251.5 75Z" fill="#503C8C"/>
<path d="M251.5 420C272.211 420 289 403.211 289 382.5C289 361.789 272.211 345 251.5 345C230.789 345 214 361.789 214 382.5C214 403.211 230.789 420 251.5 420Z" fill="#503C8C"/>
<path d="M251.5 420C193.51 420 146.5 372.99 146.5 315C146.5 210 281.5 170 281.5 105C281.5 88.43 268.07 75 251.5 75V0C309.49 0 356.5 47.01 356.5 105C356.5 210 221.5 250 221.5 315C221.5 331.57 234.93 345 251.5 345V420Z" fill="url(#paint0_linear_1_3)"/>
<path d="M251.5 420C309.49 420 356.5 372.99 356.5 315C356.5 210 221.5 170 221.5 105C221.5 88.43 234.93 75 251.5 75V0C193.51 0 146.5 47.01 146.5 105C146.5 210 281.5 250 281.5 315C281.5 331.57 268.07 345 251.5 345V420Z" fill="#55418C"/>
<path d="M54 155C81.6142 155 104 132.614 104 105C104 77.3858 81.6142 55 54 55C26.3858 55 4 77.3858 4 105C4 132.614 26.3858 155 54 155Z" fill="#55418C"/>
<path d="M91.5 180H16.5V360H91.5V180Z" fill="#55418C"/>
<defs>
<linearGradient id="paint0_linear_1_3" x1="251.5" y1="84.81" x2="251.5" y2="335.58" gradientUnits="userSpaceOnUse">
<stop stop-color="#55418C"/>
<stop offset="0.5" stop-color="#190F23"/>
<stop offset="1" stop-color="#55418C"/>
</linearGradient>
</defs>
</svg>
